<svg id="Capa_1" enable-background="new 0 0 496.999 496.999" height="512" viewBox="0 0 496.999 496.999" width="512" xmlns="http://www.w3.org/2000/svg"><g><path d="m233.01 100.101h33.518l12.354-79.093h-58.231z" fill="#ffdc64"/><path d="m244.49 100.1h-14l-12.357-79.092 14.637 2.512z" fill="#ffc850"/><path d="m218.774 19.197c0 10.626 12.891 17.66 29.736 17.66 14.914 0 27.088-5.141 29.737-14.064.116-.39.531-1.171.531-1.171.153-.781.231-1.576.231-2.382 0-10.626-13.655-19.24-30.499-19.24-7.78 0-14.879 1.837-20.267 4.862 0 0-.624.504-.944.701-5.707 3.495-8.525 8.219-8.525 13.634z" fill="#ffdc64"/><path d="m278.778 21.622c-1.85 9.51-14.708 16.883-30.268 16.883-16.84 0-30.5-8.61-30.5-19.24 0-5.72 3.953-10.883 10.233-14.403-.16.78-.233 1.593-.233 2.403 0 10.63 13.66 19.24 30.5 19.24 7.78-.001 14.878-1.853 20.268-4.883z" fill="#ffc850"/><path d="m433.12 435.465c-93.65-6.507-99.725-73.349-101.362-142.24v-72.521c0-66.365-25.728-144.299-83.246-144.299-5.015 0-9.789.592-14.324 1.718 0 0-1.885.742-2.833 1.031-45.475 13.854-62.197 82.208-62.197 141.55l-2.979 72.535c-.318 59.96-9.838 101.436-41.489 123.713-.708.498-2.745 1.313-2.745 1.313-14.615 9.586-33.787 15.352-58.733 17.257-9.78.874-28.72 3.321-40.9 11.185 0 0-1.036 1.039-1.591 1.445-5.739 4.194-8.605 9.518-8.605 16.987 0 23.144 36.317 27.021 52.872 27.972 82.671 4.999 132.341-29.476 158.995-83.798 1.532-3.121 3.379-6.18 4.756-9.405 9.124-21.373 14.892-44.924 17.783-69.203.173-1.452 1.533-2.002 2.615-1.659.673.213 1.773.647 1.878 1.55 12.683 108.804 78.517 169.704 182.824 162.941 13.903-.812 45.789.843 51.282-19.505.025-.094.141-.267.141-.267.48-1.879.736-3.942.736-6.21.001-27.186-36.404-30.601-52.878-32.09z" fill="#fff082"/><path d="m228.954 399.404c-25.26 59.63-76.544 102.436-164.214 97.136-16.55-.95-53.74-8.26-53.74-31.4 0-8.19 4.643-14.132 11.313-18.432 3.6 20.32 37.767 26.932 53.427 27.832 76.45 4.62 125.234-27.336 153.214-75.136z" fill="#ffdc64"/><path d="m234.188 78.124c-32.86 24.22-47.918 81.786-47.918 132.576v72.52c-.39 72.74-13.829 118.088-64.589 135.218 33.61-21.85 43.259-63.758 43.589-125.218v-72.52c0-60.58 21.428-130.796 68.918-142.576z" fill="#ffdc64"/><path d="m203.882 224.887c0-14.11 4.666-26.351 14.564-34.908 1.068-.924 2.878-3.031 2.878-3.031 7.653-5.491 17.036-8.725 27.174-8.725 25.771 0 46.663 20.892 46.663 46.663 0 10.078-3.195 19.409-8.626 27.037 0 0-1.023.967-1.471 1.538-8.543 10.887-21.654 16.033-36.566 16.033-25.771.001-44.616-18.836-44.616-44.607z" fill="#f8f7f7"/><path d="m286.535 251.924c-8.45 11.88-22.345 19.626-38.035 19.626-25.77 0-46.67-20.89-46.67-46.66 0-15.69 7.75-29.58 19.63-38.04-5.44 7.63-8.63 16.96-8.63 27.04 0 25.77 20.9 46.66 46.67 46.66 10.08 0 19.415-3.186 27.035-8.626z" fill="#e8e8e8"/><g><g><path d="m260.081 218.873h-23.166c-4.142 0-7.5-3.358-7.5-7.5s3.358-7.5 7.5-7.5h23.166c4.143 0 7.5 3.358 7.5 7.5s-3.357 7.5-7.5 7.5z" fill="#ff8086"/></g><g><path d="m266.087 245.9h-35.178c-4.142 0-7.5-3.358-7.5-7.5s3.358-7.5 7.5-7.5h35.178c4.143 0 7.5 3.358 7.5 7.5s-3.358 7.5-7.5 7.5z" fill="#ff8086"/></g></g><path d="m449.87 479.51c-92.513 5.995-154.419-43.472-176.085-130.641-2.899-11.663-13.267-19.919-25.285-19.919.93 0 1.84.59 1.98 1.77 1.068 9.19 2.528 18.044 4.345 26.573.767 3.653 2.106 9.462 3.781 15.421 23.158 82.904 84.202 129.634 174.264 123.797 13.97-.82 47.043-1.615 52.393-22.745-11.98 4.779-27.073 5.254-35.393 5.744z" fill="#ffdc64"/></g></svg>