<svg height="512pt" viewBox="0 -29 512 512" width="512pt" xmlns="http://www.w3.org/2000/svg"><path d="m415.425781 83.445312c-3.476562 0-6.890625.253907-10.238281.710938-9.492188-47.976562-51.800781-84.15625-102.566406-84.15625-35.742188 0-67.289063 17.933594-86.148438 45.292969-12.023437-7.167969-26.066406-11.296875-41.082031-11.296875-33.871094 0-62.824219 20.96875-74.648437 50.621094-4.019532-.757813-8.160157-1.171876-12.398438-1.171876-36.699219 0-66.449219 29.75-66.449219 66.445313l234.105469 21.890625 234.105469-21.890625c-4.34375-37.402344-36.109375-66.445313-74.679688-66.445313zm0 0" fill="#c58d6f"/><path d="m256 206.808594-237.128906 36.261718v104.976563l237.128906 52.488281 237.128906-52.488281v-104.976563zm0 0" fill="#dfae96"/><g fill="#434a53"><path d="m189.59375 110.199219c-4.265625 0-7.722656-3.460938-7.722656-7.726563v-12.019531c0-4.265625 3.457031-7.726563 7.722656-7.726563 4.269531 0 7.726562 3.460938 7.726562 7.726563v12.019531c0 4.265625-3.457031 7.726563-7.726562 7.726563zm0 0"/><path d="m322.40625 110.199219c-4.269531 0-7.726562-3.460938-7.726562-7.726563v-12.019531c0-4.265625 3.457031-7.726563 7.726562-7.726563 4.265625 0 7.722656 3.460938 7.722656 7.726563v12.019531c0 4.265625-3.457031 7.726563-7.722656 7.726563zm0 0"/><path d="m256 116.613281c-8.617188 0-16.710938-3.605469-22.207031-9.894531-2.808594-3.210938-2.480469-8.09375.730469-10.902344 3.214843-2.804687 8.09375-2.480468 10.902343.734375 2.5625 2.929688 6.417969 4.609375 10.574219 4.609375s8.011719-1.679687 10.570312-4.609375c2.808594-3.210937 7.691407-3.539062 10.902344-.734375 3.214844 2.808594 3.542969 7.691406.734375 10.902344-5.496093 6.289062-13.589843 9.894531-22.207031 9.894531zm0 0"/></g><path d="m18.871094 243.070312v30.902344h474.257812v-30.902344l-237.128906-36.261718zm0 0" fill="#c58d6f"/><path d="m493.128906 149.890625h-474.257812c-10.421875 0-18.871094 8.449219-18.871094 18.875v55.425781c0 10.425782 8.449219 18.875 18.871094 18.875h474.257812c10.421875 0 18.871094-8.449218 18.871094-18.875v-55.425781c0-10.425781-8.449219-18.875-18.871094-18.875zm0 0" fill="#dfae96"/><path d="m18.871094 348.046875v84.144531c0 11.503906 9.328125 20.832032 20.832031 20.832032h432.59375c11.503906 0 20.832031-9.328126 20.832031-20.832032v-84.144531zm0 0" fill="#dfae96"/><path d="m18.871094 348.046875h474.257812v31.011719h-474.257812zm0 0" fill="#c58d6f"/></svg>