<svg height="512pt" viewBox="0 -72 512 512" width="512pt" xmlns="http://www.w3.org/2000/svg"><path d="m16 8 15.082031 180.996094c.519531 6.21875 5.71875 11.003906 11.960938 11.003906h217.917969c6.238281 0 11.4375-4.785156 11.957031-11.003906l15.082031-180.996094zm0 0" fill="#ebd2ff"/><path d="m145.453125 32h140.546875l2-24h-272l15.082031 180.996094c.519531 6.21875 5.71875 11.003906 11.960938 11.003906h66.957031l-4.519531-126.570312c-.808594-22.640626 17.324219-41.429688 39.972656-41.429688zm0 0" fill="#d7bef0"/><path d="m296 16h-288c-4.417969 0-8-3.582031-8-8s3.582031-8 8-8h288c4.417969 0 8 3.582031 8 8s-3.582031 8-8 8zm0 0" fill="#ebd2ff"/><path d="m16 64 15.082031 180.996094c.519531 6.21875 5.71875 11.003906 11.960938 11.003906h217.917969c6.238281 0 11.4375-4.785156 11.957031-11.003906l15.082031-180.996094zm0 0" fill="#c4deff"/><path d="m145.453125 88h140.546875l2-24h-272l15.082031 180.996094c.519531 6.21875 5.71875 11.003906 11.960938 11.003906h66.957031l-4.519531-126.570312c-.808594-22.640626 17.324219-41.429688 39.972656-41.429688zm0 0" fill="#a5cdff"/><path d="m296 72h-288c-4.417969 0-8-3.582031-8-8s3.582031-8 8-8h288c4.417969 0 8 3.582031 8 8s-3.582031 8-8 8zm0 0" fill="#c4deff"/><path d="m16 120 15.082031 180.996094c.519531 6.21875 5.71875 11.003906 11.960938 11.003906h217.917969c6.238281 0 11.4375-4.785156 11.957031-11.003906l15.082031-180.996094zm0 0" fill="#ff9ba0"/><path d="m145.453125 144h140.546875l2-24h-272l15.082031 180.996094c.519531 6.21875 5.71875 11.003906 11.960938 11.003906h66.957031l-4.519531-126.570312c-.808594-22.640626 17.324219-41.429688 39.972656-41.429688zm0 0" fill="#ff8087"/><path d="m296 128h-288c-4.417969 0-8-3.582031-8-8s3.582031-8 8-8h288c4.417969 0 8 3.582031 8 8s-3.582031 8-8 8zm0 0" fill="#ff9ba0"/><path d="m16 176 15.082031 180.996094c.519531 6.21875 5.71875 11.003906 11.960938 11.003906h217.917969c6.238281 0 11.4375-4.785156 11.957031-11.003906l15.082031-180.996094zm0 0" fill="#d29b6e"/><path d="m145.453125 200h140.546875l2-24h-272l15.082031 180.996094c.519531 6.21875 5.71875 11.003906 11.960938 11.003906h66.957031l-4.519531-126.570312c-.808594-22.640626 17.324219-41.429688 39.972656-41.429688zm0 0" fill="#c48d66"/><path d="m20.667969 232h59.332031c22.089844 0 40 17.910156 40 40s-17.910156 40-40 40h-52.667969zm0 0" fill="#785353"/><path d="m26 296-4-48h58c13.253906 0 24 10.746094 24 24s-10.746094 24-24 24zm0 0" fill="#643c3e"/><path d="m79.921875 280c4.421875 0 8.039063-3.582031 8.039063-8s-3.539063-8-7.960938-8h-.078125c-4.421875 0-8 3.582031-8 8s3.578125 8 8 8zm0 0" fill="#d29b6e"/><path d="m8 184h288c4.417969 0 8-3.582031 8-8s-3.582031-8-8-8h-288c-4.417969 0-8 3.582031-8 8s3.582031 8 8 8zm0 0" fill="#d29b6e"/><path d="m224 120 15.082031 180.996094c.519531 6.21875 5.71875 11.003906 11.960938 11.003906h217.917969c6.238281 0 11.4375-4.785156 11.957031-11.003906l15.082031-180.996094zm0 0" fill="#ffe17d"/><path d="m353.453125 144h140.546875l2-24h-272l15.082031 180.996094c.519531 6.21875 5.71875 11.003906 11.960938 11.003906h66.957031l-4.519531-126.570312c-.808594-22.640626 17.324219-41.429688 39.972656-41.429688zm0 0" fill="#ffd164"/><path d="m504 128h-288c-4.417969 0-8-3.582031-8-8s3.582031-8 8-8h288c4.417969 0 8 3.582031 8 8s-3.582031 8-8 8zm0 0" fill="#ffe17d"/><path d="m224 176 15.082031 180.996094c.519531 6.21875 5.71875 11.003906 11.960938 11.003906h217.917969c6.238281 0 11.4375-4.785156 11.957031-11.003906l15.082031-180.996094zm0 0" fill="#f5dcb4"/><path d="m491.332031 232h-91.332031c-22.089844 0-40 17.910156-40 40s17.910156 40 40 40h84.667969zm0 0" fill="#ff9ba0"/><path d="m486 296 4-48h-90c-13.253906 0-24 10.746094-24 24s10.746094 24 24 24zm0 0" fill="#ffb4b9"/><path d="m400.078125 280c-4.421875 0-8.039063-3.582031-8.039063-8s3.539063-8 7.960938-8h.078125c4.421875 0 8 3.582031 8 8s-3.578125 8-8 8zm0 0" fill="#ffe17d"/><path d="m353.453125 200h140.546875l2-24h-272l15.082031 180.996094c.519531 6.21875 5.71875 11.003906 11.960938 11.003906h66.957031l-4.519531-126.570312c-.808594-22.640626 17.324219-41.429688 39.972656-41.429688zm0 0" fill="#ebc9a0"/><path d="m504 184h-288c-4.417969 0-8-3.582031-8-8s3.582031-8 8-8h288c4.417969 0 8 3.582031 8 8s-3.582031 8-8 8zm0 0" fill="#f5dcb4"/></svg>