<svg id="Capa_1" enable-background="new 0 0 512 512" height="512" viewBox="0 0 512 512" width="512" xmlns="http://www.w3.org/2000/svg"><g><g id="straws_7_"><g><g><g><g><path d="m95.711 109.259v39.741l-31 28.14-29-28.14v-59.571c0-4.98 1.08-9.94 3.39-14.35.54-1.02 1.13-2.01 1.77-2.95l47.84 6.95z" fill="#59c36a"/></g></g></g></g></g><path d="m65.711 176.232 30-27.232v-39.741l-6.854-29.55-23.146 9.265z" fill="#00a66c"/><path d="m95.711 149v348c0 8.28-6.72 15-15 15h-30c-8.28 0-15-6.72-15-15v-348z" fill="#97de3d"/><path d="m226.861 56.799-131.15 52.46-54.84-37.13c3.37-4.99 8.11-8.8 13.69-11.05l150-60c7.7-3.08 16.42.66 19.5 8.35l11.15 27.87c3.08 7.7-.66 16.43-8.35 19.5z" fill="#97de3d"/><path d="m65.711 512h15c8.28 0 15-6.72 15-15v-348h-30z" fill="#59c36a"/><path d="m235.211 37.299-5.578-13.942-163.897 65.607 29.975 20.294 131.15-52.46c7.69-3.069 11.43-11.799 8.35-19.499z" fill="#59c36a"/><g id="straws_5_"><g><g><g><g><path d="m335.711 109.259v39.741l-31 28.14-29-28.14v-59.571c0-4.98 1.08-9.94 3.39-14.35.54-1.02 1.13-2.01 1.77-2.95l47.84 6.95z" fill="#73bcff"/></g></g></g></g></g><path d="m305.711 176.232 30-27.232v-39.741l-6.854-29.55-23.146 9.265z" fill="#4895ff"/><path d="m335.711 149v348c0 8.28-6.72 15-15 15h-30c-8.28 0-15-6.72-15-15v-348z" fill="#76e2f8"/><path d="m466.861 56.799-131.15 52.46-54.84-37.13c3.37-4.99 8.11-8.8 13.69-11.05l150-60c7.7-3.08 16.42.66 19.5 8.35l11.15 27.87c3.08 7.7-.66 16.43-8.35 19.5z" fill="#76e2f8"/><g fill="#73bcff"><path d="m305.711 512h15c8.28 0 15-6.72 15-15v-348h-30z"/><path d="m475.211 37.299-5.578-13.942-163.897 65.607 29.975 20.294 131.15-52.46c7.69-3.069 11.43-11.799 8.35-19.499z"/></g></g></svg>