<svg height="512" viewBox="0 0 60 60" width="512" xmlns="http://www.w3.org/2000/svg"><g id="Page-1" fill="none" fill-rule="evenodd"><g id="005---Over-Full-Bin" fill-rule="nonzero"><rect id="Rectangle-path" fill="#008a00" height="4" rx="1" width="58" x="1" y="19"/><path id="Shape" d="m58 19h-3c.5522847 0 1 .4477153 1 1v2c0 .5522847-.4477153 1-1 1h3c.5522847 0 1-.4477153 1-1v-2c0-.5522847-.4477153-1-1-1z" fill="#007900"/><circle id="Oval" cx="5" cy="55" fill="#3f51b5" r="4"/><circle id="Oval" cx="55" cy="55" fill="#3f51b5" r="4"/><path id="Shape" d="m55 51c-.5146843.0021695-1.0240724.1040471-1.5.3 1.5110147.6085107 2.5007405 2.0740584 2.5007405 3.703s-.9897258 3.0944893-2.5007405 3.703c1.496414.6077595 3.211506.2559465 4.3478056-.8918556s1.4708211-2.8663504.8480212-4.3565675c-.6227999-1.490217-2.0807039-2.4596648-3.6958268-2.4575769z" fill="#283593"/><path id="Shape" d="m48 47-1.447 2.894c-.3386882.677781-1.0313083 1.1059743-1.789 1.106h-29.528c-.7576917-.0000257-1.4503118-.428219-1.789-1.106l-1.447-2.894z" fill="#008a00"/><path id="Shape" d="m45 47-1.447 2.894c-.3386882.677781-1.0313083 1.1059743-1.789 1.106h3c.7576917-.0000257 1.4503118-.428219 1.789-1.106l1.447-2.894z" fill="#007900"/><path id="Shape" d="m57 23-2 24h-12l1-24z" fill="#a4c400"/><path id="Shape" d="m54 23-2 24h3l2-24z" fill="#90ac00"/><path id="Shape" d="m44 23-1 24h-13v-24z" fill="#60a917"/><path id="Shape" d="m30 23v24h-13l-1-24z" fill="#a4c400"/><path id="Shape" d="m17 47h-12l-2-24h13z" fill="#60a917"/><path id="Shape" d="m55.236 19c.931409-1.0249246 1.0367756-2.5554391.2546076-3.698333-.7821681-1.1428939-2.2469957-1.5988067-3.5396076-1.101667-.3940421-3.4067743-3.2001425-6.02526489-6.626-6.183-1.0359826-2.19716239-3.1369938-3.70015565-5.551-3.971-1.2357117-1.80437308-3.2442019-2.92697186-5.4285232-3.0341465-2.1843212-.10717464-4.2930611.81341051-5.6994768 2.4881465-.8170662-.53984883-1.8467575-.64520804-2.7562234-.28201998-.909466.36318805-1.5833348 1.14885053-1.8037766 2.10301998-3.3411512-1.03897233-6.936299.54871735-8.419 3.718-.22-.026-.442-.039-.667-.039-3.5552792.00159253-6.5446827 2.6680149-6.951 6.2-1.0894651-.4050146-2.31484324-.1442723-3.14502904.6692156-.83018581.8134879-1.11576873 2.033316-.73297096 3.1307844z" fill="#a0522d"/><path id="Shape" d="m53 14c-.358872.0028057-.7142708.0705652-1.049.2-.3940421-3.4067743-3.2001425-6.02526489-6.626-6.183-1.0359826-2.19716239-3.1369938-3.70015565-5.551-3.971-1.6151948-2.36264835-4.5071832-3.5024087-7.3-2.877 1.7479404.37516309 3.2862996 1.40443269 4.3 2.877 2.4140062.27084435 4.5150174 1.77383761 5.551 3.971 3.4258575.15773511 6.2319579 2.7762257 6.626 6.183 1.2906093-.4841163 2.7449842-.0248304 3.5234831 1.1127022s.6800611 2.6595247-.2384831 3.6872978h3c.7886942-.8817869.985521-2.1447443.5025587-3.2247138-.4829624-1.0799695-1.5555174-1.7752594-2.7385587-1.7752862z" fill="#783e22"/><circle id="Oval" cx="36" cy="9" fill="#783e22" r="1"/><circle id="Oval" cx="18" cy="14" fill="#783e22" r="1"/><circle id="Oval" cx="23" cy="10" fill="#783e22" r="1"/><circle id="Oval" cx="29" cy="15" fill="#783e22" r="1"/><circle id="Oval" cx="29" cy="9" fill="#783e22" r="1"/><circle id="Oval" cx="39" cy="15" fill="#783e22" r="1"/><circle id="Oval" cx="44" cy="13" fill="#783e22" r="1"/><path id="Shape" d="m5 9c-.26519481-.00005664-.51950727-.10545063-.707-.293l-1-1c-.37897221-.39237889-.37355237-1.01608478.01218142-1.40181858.3857338-.38573379 1.00943969-.39115363 1.40181858-.01218142l.293.293.293-.293c.39237889-.37897221 1.01608478-.37355237 1.40181858.01218142.38573379.3857338.39115363 1.00943969.01218142 1.40181858l-1 1c-.18749273.18754937-.44180519.29294336-.707.293z" fill="#607d8b"/><path id="Shape" d="m11 4c-.2651948-.00005664-.5195073-.10545063-.707-.293l-1-1c-.37897221-.39237889-.37355237-1.01608478.01218142-1.40181858.3857338-.38573379 1.00943968-.39115363 1.40181858-.01218142l.293.293.293-.293c.3923789-.37897221 1.0160848-.37355237 1.4018186.01218142.3857338.3857338.3911536 1.00943969.0121814 1.40181858l-1 1c-.1874927.18754937-.4418052.29294336-.707.293z" fill="#607d8b"/><path id="Shape" d="m52 7c-.2651948-.00005664-.5195073-.10545063-.707-.293l-1-1c-.3789722-.39237889-.3735524-1.01608478.0121814-1.40181858.3857338-.38573379 1.0094397-.39115363 1.4018186-.01218142l.293.293.293-.293c.2510745-.25995658.6228779-.3642126.9725073-.27269716.3496295.09151544.6226744.3645604.7141899.71418984.0915154.34962943-.0127406.72143285-.2726972.97250732l-1 1c-.1874927.18754937-.4418052.29294336-.707.293z" fill="#607d8b"/><g fill="#000"><path id="Shape" d="m58 18h-1.143c.3438679-1.240323.0615327-2.5704052-.7565445-3.5640833-.8180772-.993678-2.0691819-1.5261899-3.3524555-1.4269167-.8096386-3.19878394-3.5121602-5.56418685-6.79-5.943-1.1911376-2.09132387-3.2546323-3.54083172-5.626-3.952-1.3915218-1.80426752-3.4870071-2.92879904-5.7597635-3.0909478-2.2727565-.16214876-4.5066633.65350428-6.1402365 2.2419478-1.8883538-.72489716-4.0203637.0783132-4.961 1.869-3.3336573-.6198112-6.6959405.92929937-8.391 3.866-3.6778269-.02753242-6.90349527 2.4489006-7.827 6.009-1.10241635-.0698678-2.18464902.3192622-2.99015595 1.075147-.80550694.7558848-1.26257042 1.8112249-1.26284405 2.915853h-1c-1.1045695 0-2 .8954305-2 2v2c0 1.1045695.8954305 2 2 2h.08l1.92 23.042v3.058c-2.51496322.5133647-4.23266954 2.8476987-3.97468076 5.4015243.25798877 2.5538256 2.40785717 4.4974552 4.97468076 4.4974552s4.71669199-1.9436296 4.97468077-4.4974552c.25798873-2.5538256-1.45971755-4.8881596-3.97468077-5.4015243v-2.1h5.382l1.171 2.342c.5051529 1.0189304 1.5457301 1.6619706 2.683 1.658h29.528c1.1372699.0039706 2.1778471-.6390696 2.683-1.658l1.171-2.342h5.382v2.1c-2.5149632.5133647-4.2326695 2.8476987-3.9746808 5.4015243.2579888 2.5538256 2.4078572 4.4974552 4.9746808 4.4974552s4.716692-1.9436296 4.9746808-4.4974552c.2579887-2.5538256-1.4597176-4.8881596-3.9746808-5.4015243v-3.064l1.92-23.036h.08c1.1045695 0 2-.8954305 2-2v-2c0-1.1045695-.8954305-2-2-2zm-50.3-1.865c.28825009.1082398.610292.0776566.87301481-.082907.2627228-.1605637.43683098-.4332039.47198519-.739093.34443634-3.0280013 2.9074723-5.31472 5.955-5.313.193 0 .383.011.571.029.4211303.0430423.8230294-.18644207 1-.571 1.2708195-2.71644595 4.3522064-4.07736337 7.216-3.187.2651657.0825638.5527237.05113635.7937958-.08675458.241072-.13789092.4139425-.36982427.4772042-.64024542.1458496-.63734129.5954638-1.16237887 1.2027785-1.40454609.6073146-.24216721 1.2948395-.17056479 1.8392215.19154609.4234127.27803188.9878425.19555811 1.314-.192 1.205728-1.43559917 3.0137004-2.22437082 4.8861691-2.13170934s3.5937316 1.05608181 4.6518309 2.60370934c.1647062.23990412.425745.39616226.715.428 2.0668412.23849269 3.8648051 1.52545235 4.757 3.405.1580624.33479514.4881651.55486364.858.572 2.9420795.12184447 5.3545635 2.3733263 5.679 5.3.0351542.3058891.2092624.5785293.4719852.739093.2627228.1605636.5847647.1911468.8730148.082907.6115354-.2417466 1.3033703-.1624236 1.8443198.2114621.5409496.3738857.8596787.9930297.8496802 1.6505379-.0009271.3513508-.0943968.6962574-.271 1h-49.7293186c-.01152684-.6595987.30757281-1.2813435.85037494-1.656279.54280212-.3749356 1.23724596-.4532866 1.84994366-.208721zm23.3 29.865v-22h11.958l-.917 22zm-2 0h-11.041l-.917-22h11.958zm-13.959-22 .917 22h-10.038l-1.833-22zm-7.041 31c.0063217 1.5272079-1.13568032 2.8154186-2.65263035 2.9922422-1.51695003.1768237-2.92462954-.8141827-3.26974327-2.3018992-.34511373-1.4877166.48250048-2.9972562 1.92237362-3.506343v2.816c0 .5522847.44771525 1 1 1s1-.4477153 1-1v-2.816c1.19435087.4222546 1.99474861 1.5492146 2 2.816zm37.658-5.553c-.1681765.3397203-.514933.5542129-.894.553h-29.528c-.379067.0012129-.7258235-.2132797-.894-.553l-.724-1.447h32.764zm12.342 5.553c.0063217 1.5272079-1.1356803 2.8154186-2.6526303 2.9922422-1.5169501.1768237-2.9246296-.8141827-3.2697433-2.3018992-.3451137-1.4877166.4825005-2.9972562 1.9223736-3.506343v2.816c0 .5522847.4477153 1 1 1s1-.4477153 1-1v-2.816c1.1943509.4222546 1.9947486 1.5492146 2 2.816zm-3.92-9h-10.038l.917-22h10.955zm-52.08-24v-2h56v2z"/><circle id="Oval" cx="36" cy="9" r="1"/><circle id="Oval" cx="18" cy="14" r="1"/><circle id="Oval" cx="23" cy="10" r="1"/><circle id="Oval" cx="29" cy="15" r="1"/><circle id="Oval" cx="29" cy="9" r="1"/><circle id="Oval" cx="39" cy="15" r="1"/><circle id="Oval" cx="44" cy="13" r="1"/><path id="Shape" d="m4.293 8.707c.39049985.39038194 1.02350015.39038194 1.414 0l1-1c.37897221-.39237889.37355237-1.01608478-.01218142-1.40181858-.3857338-.38573379-1.00943969-.39115363-1.40181858-.01218142l-.293.293-.293-.293c-.39237889-.37897221-1.01608478-.37355237-1.40181858.01218142-.38573379.3857338-.39115363 1.00943969-.01218142 1.40181858z"/><path id="Shape" d="m10.293 3.707c.3904999.39038194 1.0235001.39038194 1.414 0l1-1c.3789722-.39237889.3735524-1.01608478-.0121814-1.40181858-.3857338-.38573379-1.0094397-.39115363-1.4018186-.01218142l-.293.293-.293-.293c-.3923789-.37897221-1.01608478-.37355237-1.40181858.01218142-.38573379.3857338-.39115363 1.00943969-.01218142 1.40181858z"/><path id="Shape" d="m51.293 6.707c.3904999.39038194 1.0235001.39038194 1.414 0l1-1c.2599566-.25107447.3642126-.62287789.2726972-.97250732-.0915155-.34962944-.3645604-.6226744-.7141899-.71418984-.3496294-.09151544-.7214328.01274058-.9725073.27269716l-.293.293-.293-.293c-.3923789-.37897221-1.0160848-.37355237-1.4018186.01218142-.3857338.3857338-.3911536 1.00943969-.0121814 1.40181858z"/></g></g></g></svg>