<svg height="512" viewBox="0 0 128 128" width="512" xmlns="http://www.w3.org/2000/svg"><g><path d="m16 24.192h96a6 6 0 0 1 6 6v39.808a0 0 0 0 1 0 0h-108a0 0 0 0 1 0 0v-39.808a6 6 0 0 1 6-6z" fill="#eaeaf0"/><path d="m112 31.942h-96a1.75 1.75 0 0 1 0-3.5h96a1.75 1.75 0 0 1 0 3.5z" fill="#d8d8d8"/><ellipse cx="29.417" cy="64" fill="#f4a86c" rx="14.696" ry="21.375"/><ellipse cx="64" cy="64" fill="#f4a86c" rx="14.696" ry="21.375"/><ellipse cx="98.583" cy="64" fill="#f4a86c" rx="14.696" ry="21.375"/><path d="m104.933 55.576a1.751 1.751 0 0 1 -1.55-.933 9.911 9.911 0 0 0 -3.043-3.653 1.75 1.75 0 0 1 1.92-2.926 13.236 13.236 0 0 1 4.219 4.944 1.751 1.751 0 0 1 -1.546 2.568z" fill="#d78759"/><path d="m12.667 70 3.614 28.561a6 6 0 0 0 5.953 5.247h13.439a6 6 0 0 0 5.952-5.247l.926-7.311h7.849l.925 7.311a6 6 0 0 0 5.952 5.247h13.443a6 6 0 0 0 5.952-5.247l.928-7.311h7.852l.926 7.311a6 6 0 0 0 5.952 5.247h13.439a6 6 0 0 0 5.953-5.247l3.611-28.561z" fill="#eaeaf0"/><g fill="#d8d8d8"><path d="m35.673 99.558h-13.439a1.75 1.75 0 1 1 0-3.5h13.439a1.75 1.75 0 0 1 0 3.5z"/><path d="m57.28 99.558a1.75 1.75 0 0 1 0-3.5h13.44a1.75 1.75 0 0 1 0 3.5z"/><path d="m105.767 99.558h-13.44a1.75 1.75 0 0 1 0-3.5h13.44a1.75 1.75 0 0 1 0 3.5z"/><rect height="6" rx="3" width="115" x="6.5" y="67"/></g></g></svg>