<svg id="icons" enable-background="new 0 0 64 64" height="512" viewBox="0 0 64 64" width="512" xmlns="http://www.w3.org/2000/svg"><path d="m35 37 2.01 19h22l2-19z" fill="#e6e9ed"/><path d="m43.01 31.99 2-18.99h-26l2 18.99z" fill="#e6e9ed"/><path d="m5.01 56h21.99l2.01-19h-26.01z" fill="#e6e9ed"/><path d="m62 32.01 1 4.99h-1.99-26.01-2l1.01-4.99z" fill="#fc6e51"/><path d="m46 8 1 5h-1.99-26-2l1-5z" fill="#a0d468"/><path d="m35.01 18.99h2.99c0 3.32-2.68 6-6 6-3.31 0-6-2.68-6-6h3c0 1.66 1.35 3.01 3 3.01 1.66 0 3.01-1.35 3.01-3.01z" fill="#8cc152"/><g fill="#ed5565"><path d="m28.005 18.99h8c0 2.209-1.796 4.006-4.007 4.006-2.197 0-3.993-1.797-3.993-4.006z"/><path d="m30 32.01 1 4.99h-1.99-26.01-2l1-4.99z"/><path d="m16 44c1.66 0 3 1.34 3 3s-1.34 4-3 4c-1.65 0-3-2.34-3-4s1.35-3 3-3z"/><path d="m16 52c-2.404 0-4-3.01-4-5 0-2.206 1.794-4 4-4s4 1.794 4 4c0 1.99-1.596 5-4 5zm0-7c-1.103 0-2 .897-2 2 0 1.239 1.034 3 2 3s2-1.761 2-3c0-1.103-.897-2-2-2z"/></g><path d="m16 45c-.553 0-1-.447-1-1v-3.002c0-.553.447-1 1-1s1 .447 1 1v3.002c0 .553-.447 1-1 1z" fill="#8cc152"/><path d="m48 43.998c-.553 0-1-.447-1-1v-1c0-.553.447-1 1-1s1 .447 1 1v1c0 .553-.447 1-1 1z" fill="#e9573f"/><circle cx="48" cy="47" fill="#fc6e51" r="4.5"/><path d="m48.03 49.997c-.553 0-1.005-.447-1.005-1s.442-1 .994-1h.011c.552 0 1 .447 1 1s-.448 1-1 1z" fill="#e9573f"/><path d="m50.03 48.999c-.553 0-1.005-.447-1.005-1s.442-1 .994-1h.011c.552 0 1 .447 1 1s-.448 1-1 1z" fill="#e9573f"/><path d="m14 44.998c-1.103 0-2-.897-2-2 0-.553.447-1 1-1s1 .447 1 1v.002c.553 0 1 .446 1 .999 0 .552-.447.999-1 .999z" fill="#a0d468"/><path d="m18 44.998c-.553 0-1-.447-1-1s.447-1 1-1c0-.553.447-1 1-1s1 .447 1 1c0 1.103-.897 2-2 2z" fill="#a0d468"/><path d="m18 44.998h-4c-.553 0-1-.447-1-1s.447-1 1-1h4c.553 0 1 .447 1 1s-.447 1-1 1z" fill="#a0d468"/></svg>