<svg height="512pt" viewBox="0 0 512 512" width="512pt" xmlns="http://www.w3.org/2000/svg"><path d="m511.800781 120-1.800781 30-254-16.800781-195.902344-13.199219 1.804688-30 194.097656 12.898438zm0 0" fill="#ffb99c"/><path d="m511.800781 120-1.800781 30-254-16.800781v-30.300781zm0 0" fill="#ff9468"/><g fill="#ffe569"><path d="m148.757812 205.238281-21.941406-20.476562c10.136719-10.839844 9.828125-27.585938-.675781-38.085938-22.394531-22.386719-22.394531-58.828125 0-81.210937 6.226563-6.242188 9.097656-15.164063 7.675781-23.878906l29.589844-4.863282c3.003906 18.238282-3 36.898438-16.054688 49.953125-5.183593 5.183594-8.027343 12.066407-8.027343 19.394531 0 7.324219 2.84375 14.207032 8.027343 19.394532 22.003907 22 22.617188 57.039062 1.40625 79.773437zm0 0"/><path d="m208.757812 205.238281-21.941406-20.476562c10.136719-10.839844 9.828125-27.585938-.675781-38.085938-22.394531-22.386719-22.394531-58.828125 0-81.210937 6.886719-6.886719 9.609375-17.007813 7.136719-26.429688l29.003906-7.644531c5.199219 19.703125-.527344 40.882813-14.929688 55.285156-10.691406 10.691407-10.691406 28.09375 0 38.789063 22.003907 22 22.617188 57.039062 1.40625 79.773437zm0 0"/><path d="m268.898438 205.199219-12.898438-12-9.300781-8.398438c10.203125-10.800781 9.902343-27.601562-.601563-38.101562-22.5-22.5-22.5-58.800781 0-81.300781 7.5-7.5 10.203125-18.898438 6.300782-28.800782l3.601562-1.199218 24.601562-9.296876c7.796876 21 2.699219 44.699219-13.203124 60.597657-10.796876 10.800781-10.796876 28.203125 0 38.699219 21.902343 22.199218 22.5 57 1.5 79.800781zm0 0"/></g><path d="m268.898438 205.199219-12.898438-12v-157.800781l24.601562-9.296876c7.796876 21 2.699219 44.699219-13.203124 60.597657-10.796876 10.800781-10.796876 28.203125 0 38.699219 21.902343 22.199218 22.5 57 1.5 79.800781zm0 0" fill="#ffc739"/><path d="m511.800781 30-255.800781 17.101562-194.097656 12.898438-1.804688-30 195.902344-13.199219 254-16.800781zm0 0" fill="#ffcebf"/><path d="m511.800781 30-255.800781 17.101562v-30.300781l254-16.800781zm0 0" fill="#ffb99c"/><path d="m512 300-27 13.199219-43-84-26.144531-21.066407 35.144531-28.132812zm0 0" fill="#ff641a"/><path d="m70 229.199219-43 84-27-13.199219 61-120 35.667969 30.988281zm0 0" fill="#ff9100"/><path d="m401.800781 452-10.800781 60h-270l-10.800781-60 36-31h228zm0 0" fill="#ff641a"/><path d="m374.199219 421 27.601562 31-10.800781 60h-135v-91zm0 0" fill="#f03800"/><path d="m451 180-49.199219 272h-291.601562l-49.199219-272 90 60h180zm0 0" fill="#ff9100"/><path d="m331 240 120-60-49.199219 272h-145.800781v-212zm0 0" fill="#ff641a"/><path d="m451 180-90 150h-210l-90-150zm0 0" fill="#e0f4ff"/><path d="m256 180h195l-90 150h-105zm0 0" fill="#bbdcff"/><path d="m211 240h90v30h-90zm0 0" fill="#ff9100"/><path d="m256 240h45v30h-45zm0 0" fill="#ff641a"/></svg>