<svg height="512pt" viewBox="-84 0 512 512" width="512pt" xmlns="http://www.w3.org/2000/svg"><path d="m20.5625 15.679688h297.929688v478.585937h-297.929688zm0 0" fill="#766e6e"/><path d="m251.402344 12.195312v412.472657c0 11.957031-9.691406 21.648437-21.648438 21.648437h-209.191406v44.464844h297.929688v-478.585938zm0 0" fill="#5b5555"/><g fill="#b9acac"><path d="m322.429688 43.179688h-301.46875c-11.578126 0-20.960938-9.382813-20.960938-20.957032v-1.261718c0-11.578126 9.382812-20.960938 20.960938-20.960938h301.46875c11.574218 0 20.960937 9.382812 20.960937 20.960938v1.261718c0 11.574219-9.382813 20.957032-20.960937 20.957032zm0 0"/><path d="m322.429688 512h-301.46875c-11.578126 0-20.960938-9.382812-20.960938-20.960938v-1.261718c0-11.574219 9.382812-20.957032 20.960938-20.957032h301.46875c11.574218 0 20.960937 9.382813 20.960937 20.957032v1.261718c0 11.578126-9.382813 20.960938-20.960937 20.960938zm0 0"/><path d="m322.429688 389.65625h-301.46875c-11.578126 0-20.960938-9.386719-20.960938-20.960938v-1.261718c0-11.574219 9.382812-20.960938 20.960938-20.960938h301.46875c11.574218 0 20.960937 9.386719 20.960937 20.960938v1.261718c0 11.574219-9.382813 20.960938-20.960937 20.960938zm0 0"/><path d="m322.429688 160.386719h-301.46875c-11.578126 0-20.960938-9.382813-20.960938-20.960938v-1.261719c0-11.574218 9.382812-20.960937 20.960938-20.960937h301.46875c11.574218 0 20.960937 9.386719 20.960937 20.960937v1.261719c0 11.578125-9.382813 20.960938-20.960937 20.960938zm0 0"/></g><path d="m321.800781 0h-31.785156c0 11.925781-9.667969 21.589844-21.589844 21.589844h-268.425781c0 11.925781 9.664062 21.589844 21.589844 21.589844h300.210937c11.921875 0 21.589844-9.664063 21.589844-21.589844 0-11.925782-9.667969-21.589844-21.589844-21.589844zm0 0" fill="#9e9797"/><path d="m321.800781 468.820312h-31.785156c0 11.921876-9.667969 21.589844-21.589844 21.589844h-268.425781c0 11.921875 9.664062 21.589844 21.589844 21.589844h300.210937c11.921875 0 21.589844-9.667969 21.589844-21.589844 0-11.925781-9.667969-21.589844-21.589844-21.589844zm0 0" fill="#9e9797"/><path d="m321.800781 346.472656h-31.785156c0 11.925782-9.667969 21.589844-21.589844 21.589844h-268.425781c0 11.925781 9.664062 21.589844 21.589844 21.589844h300.210937c11.921875 0 21.589844-9.664063 21.589844-21.589844 0-11.921875-9.667969-21.589844-21.589844-21.589844zm0 0" fill="#9e9797"/><path d="m321.800781 117.203125h-31.785156c0 11.925781-9.667969 21.59375-21.589844 21.59375h-268.425781c0 11.921875 9.664062 21.589844 21.589844 21.589844h300.210937c11.921875 0 21.589844-9.667969 21.589844-21.589844 0-11.925781-9.667969-21.59375-21.589844-21.59375zm0 0" fill="#9e9797"/><path d="m240.578125 253.601562c0 40.3125-32.679687 72.996094-72.996094 72.996094-40.3125 0-72.996093-32.683594-72.996093-72.996094 0-40.316406 32.683593-72.996093 72.996093-72.996093 40.316407 0 72.996094 32.679687 72.996094 72.996093zm0 0" fill="#ffd500"/><path d="m196.914062 269.6875c0 16.199219-13.132812 29.328125-29.332031 29.328125s-29.328125-13.128906-29.328125-29.328125c0-13.261719 19.648438-49.390625 26.78125-62.066406 1.121094-1.988282 3.976563-1.988282 5.09375 0 7.132813 12.675781 26.785156 48.804687 26.785156 62.066406zm0 0" fill="#766e6e"/><path d="m170.128906 207.621094c-1.117187-1.988282-3.976562-1.988282-5.09375 0-.582031 1.035156-1.257812 2.246094-1.992187 3.574218 7.953125 15.464844 16.734375 34.546876 16.734375 43.410157 0 16.199219-13.128906 29.332031-29.328125 29.332031-3.25 0-6.371094-.535156-9.292969-1.511719 4.742188 9.816407 14.792969 16.589844 26.425781 16.589844 16.199219 0 29.332031-13.128906 29.332031-29.328125 0-13.261719-19.652343-49.390625-26.785156-62.066406zm0 0" fill="#5b5555"/><path d="m167.582031 180.605469c-3.671875 0-7.277343.277343-10.804687.800781 35.1875 5.222656 62.1875 35.554688 62.1875 72.195312 0 36.640626-27 66.96875-62.1875 72.195313 3.527344.523437 7.132812.800781 10.804687.800781 40.316407 0 72.996094-32.683594 72.996094-72.996094 0-40.316406-32.679687-72.996093-72.996094-72.996093zm0 0" fill="#fbc700"/></svg>