<svg id="Capa_1" enable-background="new 0 0 496.3 496.3" height="512" viewBox="0 0 496.3 496.3" width="512" xmlns="http://www.w3.org/2000/svg"><g><g><g id="XMLID_135_"><g><path d="m318.946 8.75-7.686-8.54c-.47-.14-.95-.21-1.44-.21 0 0-124.31.07-124.78.21l-25.086 52.15 168.108-.152z" fill="#e19974"/></g></g></g><g fill="#e8ad8c"><path d="m363.62 176.86h-52.36v-176.65c.43.12.85.31 1.23.55l48.79 30.63c1.46.91 2.34 2.52 2.34 4.24z"/><path d="m185.04 180.15h-52.36v-144.52c0-1.72.88-3.33 2.34-4.24l48.79-30.63c.38-.24.8-.43 1.23-.55z"/><path d="m431.66 370.215-36.09-246.22c-1.144-7.802-7.836-13.584-15.72-13.584h-264.399c-7.885 0-14.577 5.783-15.72 13.584l-36.09 246.22-9.404 58.893h387.648z"/></g><path d="m431.66 370.215-2.931-19.995h-261.853c-17.802 0-31.457-15.802-28.875-33.416l23.934-163.286c1.144-7.802 7.836-13.584 15.721-13.584h220.251l-2.336-15.939c-1.144-7.802-7.836-13.584-15.721-13.584h-264.399c-7.885 0-14.577 5.783-15.72 13.584l-33.16 226.225-2.931 19.995-6.629 41.516-2.775 17.377h20.276 46.643 300.633l17.141-17.02z" fill="#e19974"/><g><g id="XMLID_134_"><g><path d="m451.53 381.2v104.11c0 2.62-.92 5.04-2.46 6.93l-2.22-1.77-57.63-57.21 57.63-57.22 2.12-1.88c1.6 1.91 2.56 4.36 2.56 7.04z" fill="#dc8758"/><path d="m107.08 433.26-57.63 57.21-2.23 1.75c-1.53-1.89-2.45-4.29-2.45-6.91v-104.11c0-2.67.95-5.11 2.53-7.01l2.15 1.85z" fill="#dc8758"/><path d="m446.85 490.47 2.22 1.77c-2.02 2.48-5.09 4.06-8.53 4.06h-384.78c-3.45 0-6.53-1.59-8.54-4.08l2.23-1.75 57.63-57.21h282.14z" fill="#e19974"/><path d="m448.97 374.16-2.12 1.88-57.63 57.22h-282.14l-57.63-57.22-2.15-1.85c2.01-2.43 5.06-3.97 8.46-3.97h384.78c3.39 0 6.42 1.53 8.43 3.94z" fill="#e8ad8c"/></g></g></g></g></svg>