<svg id="Layer_1" enable-background="new 0 0 512 512" height="512" viewBox="0 0 512 512" width="512" xmlns="http://www.w3.org/2000/svg"><g><path d="m503.656 223.6-280.056 280.056c-5.381 5.381-12.544 8.344-20.145 8.337l-32.237.007c-4.144 0-7.502-3.359-7.502-7.502v-13.506-19.926l-33.425.007c-4.144 0-7.502-3.359-7.502-7.502v-33.432h-33.432c-4.144 0-7.495-3.352-7.495-7.495v-33.432h-33.432c-4.144 0-7.502-3.359-7.502-7.502l.007-33.425h-33.433c-4.144 0-7.502-3.359-7.502-7.502v-32.244c0-7.594 2.963-14.757 8.344-20.138l280.056-280.057c5.381-5.381 12.544-8.351 20.145-8.344h32.237c4.144 0 7.502 3.359 7.502 7.502v33.432l33.425-.007c4.144 0 7.502 3.359 7.502 7.502v33.432h33.432c4.144 0 7.495 3.352 7.495 7.495v33.432h33.432c4.144 0 7.502 3.359 7.502 7.502l-.007 33.425h19.926 13.506c4.144 0 7.502 3.359 7.502 7.502v32.244c.001 7.595-2.962 14.758-8.343 20.139z" fill="#ed2061"/><path d="m512 203.462c0 7.594-2.963 14.757-8.344 20.138l-280.056 280.056c-5.381 5.381-12.544 8.344-20.145 8.337l-32.237.007c-4.144 0-7.502-3.359-7.502-7.502v-13.506h18.738c7.601.007 14.757-2.963 20.138-8.344l280.056-280.056c5.381-5.381 8.351-12.537 8.344-20.138v-18.738h13.506c4.144 0 7.502 3.359 7.502 7.502z" fill="#c71e54"/><path d="m462.828 222.413-240.415 240.415c-2.927 2.927-7.679 2.927-10.607 0l-162.634-162.634c-2.927-2.927-2.927-7.679 0-10.607l240.415-240.415c2.927-2.927 7.679-2.927 10.607 0l162.634 162.634c2.927 2.927 2.927 7.679 0 10.607z" fill="#fbdf63"/><path d="m462.828 222.413-240.415 240.415c-2.927 2.927-7.679 2.927-10.607 0l-162.634-162.634c-2.927-2.927-2.927-7.679 0-10.607l21.213-21.213c-2.927 2.927-2.927 7.679 0 10.607l141.421 141.421c2.927 2.927 7.679 2.927 10.607 0l219.202-219.202c2.927-2.927 2.927-7.679 0-10.607l21.213 21.213c2.927 2.927 2.927 7.679 0 10.607z" fill="#f9d11f"/><g fill="#fff"><path d="m198.383 260.595-21.201 21.201c-2.929 2.929-2.929 7.677 0 10.607l42.415 42.415c2.929 2.929 7.677 2.929 10.607 0s2.929-7.677 0-10.607l-15.904-15.904 10.594-10.594 15.904 15.904c2.929 2.929 7.677 2.929 10.607 0 2.929-2.929 2.929-7.677 0-10.607l-42.415-42.415c-2.93-2.929-7.678-2.929-10.607 0zm5.31 37.106-10.601-10.601 10.594-10.594 10.601 10.601z"/><path d="m293.11 187.082c2.929-2.929 2.929-7.677 0-10.607-2.929-2.929-7.677-2.929-10.607 0l-21.201 21.201c-2.929 2.929-2.929 7.677 0 10.607l42.415 42.415c2.929 2.929 7.677 2.929 10.607 0l21.201-21.201c2.929-2.929 2.929-7.677 0-10.607s-7.677-2.929-10.607 0l-15.897 15.897-31.809-31.809z"/><path d="m240.089 218.889c-2.929 2.929-2.929 7.677 0 10.607l37.112 37.112-10.594 10.594-37.112-37.112c-2.929-2.929-7.677-2.929-10.607 0s-2.929 7.677 0 10.607l42.415 42.415c2.929 2.929 7.677 2.929 10.607 0l21.201-21.201c2.929-2.929 2.929-7.677 0-10.607l-42.415-42.415c-2.929-2.929-7.677-2.929-10.607 0z"/><path d="m166.563 313.628c2.929-2.929 2.929-7.677 0-10.607-2.929-2.929-7.677-2.929-10.607 0l-21.201 21.201c-2.929 2.929-2.929 7.677 0 10.607l21.201 21.201c2.929 2.929 7.677 2.929 10.607 0l15.897-15.897 10.594 10.594-15.897 15.897c-2.929 2.929-2.929 7.677 0 10.607 2.929 2.929 7.677 2.929 10.607 0l21.201-21.201c2.929-2.929 2.929-7.677 0-10.607l-21.201-21.201c-2.929-2.929-7.677-2.929-10.607 0l-15.897 15.898-10.594-10.594z"/><path d="m356.037 166.57c2.929-2.929 2.929-7.677 0-10.607s-7.677-2.929-10.607 0l-15.897 15.897-10.601-10.601 15.897-15.897c2.929-2.929 2.929-7.677 0-10.607-2.929-2.929-7.677-2.929-10.607 0l-21.201 21.201c-2.929 2.929-2.929 7.677 0 10.607l42.415 42.415c2.929 2.929 7.677 2.929 10.607 0l21.201-21.201c2.929-2.929 2.929-7.677 0-10.607-2.929-2.929-7.677-2.929-10.607 0l-15.897 15.897-10.601-10.601z"/></g><g fill="#ffa402"><path d="m131.909 278.975c4.47-4.47 7.853-5.086 12.535-5.936 5.647-1.026 12.675-2.304 20.459-10.087 7.784-7.784 9.062-14.813 10.088-20.46.851-4.682 1.466-8.065 5.936-12.535 4.471-4.471 7.853-5.086 12.535-5.936 5.648-1.027 12.676-2.304 20.46-10.089s9.062-14.813 10.088-20.46c.851-4.682 1.466-8.065 5.937-12.535 4.471-4.471 7.854-5.086 12.537-5.938 5.648-1.027 12.677-2.305 20.462-10.09 7.784-7.784 9.063-14.813 10.089-20.46.851-4.684 1.467-8.067 5.939-12.539 2.929-2.929 2.929-7.677 0-10.607s-7.677-2.929-10.607 0c-7.785 7.785-9.063 14.814-10.09 20.462-.851 4.682-1.467 8.065-5.938 12.537-4.472 4.472-7.855 5.087-12.539 5.939-5.646 1.027-12.675 2.305-20.46 10.089s-9.062 14.813-10.088 20.46c-.851 4.682-1.466 8.065-5.937 12.535-4.471 4.471-7.854 5.086-12.536 5.937-5.647 1.026-12.675 2.304-20.46 10.088-7.784 7.784-9.062 14.813-10.088 20.46-.851 4.682-1.466 8.065-5.936 12.535s-7.853 5.085-12.535 5.936c-5.647 1.026-12.675 2.304-20.46 10.088-2.929 2.929-2.929 7.677 0 10.607 2.932 2.928 7.68 2.928 10.609-.001z"/><path d="m371.605 224.54c-7.785 7.785-9.063 14.814-10.09 20.462-.851 4.682-1.467 8.065-5.938 12.537-4.472 4.472-7.855 5.087-12.539 5.939-5.646 1.027-12.675 2.305-20.46 10.089s-9.062 14.813-10.088 20.46c-.851 4.682-1.466 8.065-5.936 12.535-4.471 4.471-7.854 5.086-12.536 5.937-5.647 1.026-12.675 2.304-20.46 10.088s-9.062 14.813-10.088 20.46c-.851 4.682-1.466 8.065-5.936 12.535s-7.853 5.085-12.535 5.936c-5.647 1.026-12.675 2.304-20.46 10.088-2.929 2.929-2.929 7.677 0 10.607s7.677 2.929 10.607 0c4.471-4.47 7.853-5.086 12.535-5.936 5.647-1.026 12.675-2.304 20.459-10.087 7.784-7.784 9.062-14.813 10.088-20.46.851-4.682 1.466-8.065 5.936-12.535 4.47-4.471 7.853-5.086 12.535-5.937 5.648-1.027 12.676-2.304 20.46-10.089 7.784-7.784 9.062-14.813 10.088-20.46.851-4.682 1.466-8.065 5.936-12.535 4.471-4.471 7.854-5.086 12.537-5.938 5.648-1.027 12.677-2.305 20.462-10.09 7.784-7.784 9.063-14.813 10.089-20.46.851-4.684 1.467-8.067 5.939-12.539 2.929-2.929 2.929-7.677 0-10.607-2.927-2.929-7.675-2.929-10.605 0z"/></g></g></svg>