<svg height="447pt" viewBox="1 1 447 447.525" width="447pt" xmlns="http://www.w3.org/2000/svg"><path d="m243.574219 0c-78.921875 0-142.898438 63.976562-142.898438 142.898438v50.207031h30.898438v-50.207031c0-61.859376 50.144531-112 112-112s111.996093 50.140624 111.996093 112v150.617187h30.898438v-150.617187c0-78.921876-63.976562-142.898438-142.894531-142.898438zm0 0" fill="#7d8d9c"/><path d="m231.984375 448h-231.722656v-208.550781l54.070312-77.242188h123.585938l54.066406 77.242188zm0 0" fill="#f6bf9b"/><g fill="#d3843d"><path d="m23.433594 409.378906h15.449218v15.449219h-15.449218zm0 0"/><path d="m38.882812 378.480469h15.449219v15.449219h-15.449219zm0 0"/><path d="m69.777344 393.929688h15.449218v15.449218h-15.449218zm0 0"/><path d="m85.226562 378.480469h15.449219v15.449219h-15.449219zm0 0"/><path d="m100.675781 347.585938h15.449219v15.449218h-15.449219zm0 0"/><path d="m116.125 393.929688h15.449219v15.449218h-15.449219zm0 0"/><path d="m131.574219 409.378906h30.894531v15.449219h-30.894531zm0 0"/><path d="m162.46875 378.480469h15.449219v30.898437h-15.449219zm0 0"/><path d="m177.917969 409.378906h15.449219v15.449219h-15.449219zm0 0"/><path d="m193.367188 378.480469h15.449218v15.449219h-15.449218zm0 0"/><path d="m69.777344 332.136719h30.898437v15.449219h-30.898437zm0 0"/><path d="m23.433594 347.585938h15.449218v15.449218h-15.449218zm0 0"/><path d="m177.917969 347.585938h15.449219v15.449218h-15.449219zm0 0"/><path d="m293.78125 293.515625h154.480469v154.484375h-154.480469zm0 0"/></g><path d="m425.089844 316.691406c-108.136719 0-108.136719 108.136719-108.136719 108.136719s108.136719 0 108.136719-108.136719zm0 0" fill="#cfdfe8"/><path d="m316.953125 432.550781c-4.265625 0-7.722656-3.457031-7.722656-7.726562 0-2.046875.8125-4.011719 2.261719-5.457031l77.238281-77.242188c3.046875-2.988281 7.933593-2.945312 10.921875.097656 2.953125 3.003906 2.953125 7.820313 0 10.824219l-77.238282 77.242187c-1.449218 1.449219-3.414062 2.265626-5.460937 2.261719zm0 0" fill="#d3843d"/><path d="m69.777344 193.105469h92.691406v30.894531h-92.691406zm0 0" fill="#d3843d"/></svg>