<?xml version="1.0" encoding="iso-8859-1"?>
<!-- Generator: Adobe Illustrator 19.0.0, SVG Export Plug-In . SVG Version: 6.00 Build 0)  -->
<svg version="1.1" id="Capa_1" xmlns="http://www.w3.org/2000/svg" xmlns:xlink="http://www.w3.org/1999/xlink" x="0px" y="0px"
	 viewBox="0 0 512 512" style="enable-background:new 0 0 512 512;" xml:space="preserve">
<path style="fill:#996A5F;" d="M0,498.931c24.082-43.239,70.791-268.747,77.177-326.219C83.563,115.24,99.983,13.069,256,13.069
	S428.437,115.24,434.823,172.711c6.386,57.471,53.096,282.98,77.177,326.219H0V498.931z"/>
<path style="fill:#7F574F;" d="M276.604,13.705c-6.584-0.416-13.444-0.636-20.604-0.636c-156.017,0-172.437,102.171-178.823,159.642
	C70.791,230.183,24.082,455.691,0,498.931h41.207c24.082-43.239,70.791-268.747,77.177-326.219
	C124.477,117.877,139.71,22.357,276.604,13.705z"/>
<path style="fill:#543A33;" d="M158.75,369.007c62.456,0,52.607-11.954,97.25-11.954s34.794,11.954,97.25,11.954v-82.841H163.223
	L158.75,369.007z"/>
<g>
	<path style="fill:#EEEEEC;" d="M182.23,302.074c0,0-14.381,169.837-35.611,169.837s-6.164-188.326-6.164-188.326L182.23,302.074z"
		/>
	<path style="fill:#EEEEEC;" d="M329.77,302.074c0,0,14.381,169.837,35.611,169.837s6.164-188.326,6.164-188.326L329.77,302.074z"/>
</g>
<g>
	<path style="fill:#D4D3D3;" d="M375.128,341.816c-1.524-32.468-3.584-58.232-3.584-58.232l-41.774,18.49
		c0,0,1.818,21.474,5.117,49.148C351.853,350.981,364.98,347.275,375.128,341.816z"/>
	<path style="fill:#D4D3D3;" d="M177.114,351.223c3.298-27.675,5.117-49.148,5.117-49.148l-41.774-18.49
		c0,0-2.06,25.765-3.584,58.233C147.02,347.276,160.147,350.981,177.114,351.223z"/>
</g>
<path style="fill:#7F574F;" d="M298.062,170.124c64.52,16.555,92.624,71.165,80.024,120.995
	c-10.518,41.619-65.911,29.772-98.362,18.842c-15.401-5.182-32.049-5.182-47.45,0c-32.451,10.93-87.844,22.777-98.362-18.842
	c-12.599-49.83,15.504-104.44,80.024-120.995H298.062z"/>
<g>
	<path style="fill:#543A33;" d="M105.522,344.042c-1.522,0-3.059-0.448-4.403-1.383c-3.503-2.435-4.369-7.25-1.934-10.754
		c40.36-58.062,94.354-69.158,96.633-69.602c4.2-0.815,8.247,1.919,9.061,6.107c0.815,4.184-1.911,8.236-6.091,9.058
		c-0.689,0.14-50.366,10.678-86.914,63.257C110.373,342.884,107.967,344.042,105.522,344.042z"/>
	<path style="fill:#543A33;" d="M74.714,322.127c-2.096,0-4.186-0.848-5.71-2.52c-2.876-3.153-2.651-8.04,0.502-10.916
		c63.045-57.503,123.403-72.848,125.943-73.474c4.137-1.018,8.329,1.511,9.349,5.656c1.02,4.14-1.508,8.324-5.646,9.347l0,0
		c-0.585,0.146-59.264,15.193-119.232,69.889C78.438,321.46,76.572,322.127,74.714,322.127z"/>
	<path style="fill:#543A33;" d="M86.361,271.451c-2.462,0-4.881-1.173-6.379-3.357c-2.414-3.519-1.516-8.328,2.003-10.742
		c48.936-33.556,94.654-39.415,96.576-39.648c4.229-0.514,8.087,2.504,8.6,6.74c0.513,4.233-2.499,8.081-6.73,8.599l0,0
		c-0.436,0.054-44.054,5.748-89.707,37.054C89.389,271.012,87.866,271.451,86.361,271.451z"/>
	<path style="fill:#543A33;" d="M123.371,202.636c-10.468,0-20.814-4.739-27.577-13.729c-2.565-3.41-1.88-8.254,1.529-10.819
		c3.409-2.565,8.255-1.881,10.819,1.53c6.301,8.373,18.236,10.062,26.609,3.762c3.41-2.565,8.254-1.879,10.819,1.53
		c2.565,3.411,1.88,8.254-1.529,10.819C137.85,200.386,130.581,202.636,123.371,202.636z"/>
	<path style="fill:#543A33;" d="M144.695,159.853c-2.345,0-4.662-1.063-6.18-3.082c-6.3-8.373-18.235-10.062-26.609-3.762
		c-3.41,2.565-8.254,1.88-10.819-1.53c-2.565-3.411-1.88-8.254,1.529-10.819c15.183-11.42,36.826-8.361,48.246,6.822
		c2.565,3.41,1.88,8.254-1.529,10.819C147.942,159.347,146.311,159.853,144.695,159.853z"/>
</g>
<circle style="fill:#424342;" cx="123.333" cy="168.198" r="12.957"/>
<g>
	<path style="fill:#543A33;" d="M406.478,344.042c-2.446,0-4.85-1.157-6.351-3.317c-36.82-52.969-86.403-63.157-86.9-63.254
		c-4.188-0.816-6.922-4.873-6.106-9.061c0.816-4.189,4.873-6.922,9.061-6.107c2.279,0.444,56.273,11.54,96.633,69.602
		c2.435,3.504,1.569,8.319-1.934,10.754C409.537,343.594,407.999,344.042,406.478,344.042z"/>
	<path style="fill:#543A33;" d="M437.286,322.127c-1.859,0-3.723-0.667-5.204-2.017c-59.968-54.695-118.647-69.742-119.232-69.889
		c-4.138-1.028-6.665-5.216-5.641-9.355c1.024-4.138,5.204-6.665,9.343-5.647c2.539,0.625,62.898,15.97,125.943,73.474
		c3.153,2.876,3.378,7.762,0.502,10.916C441.472,321.278,439.383,322.127,437.286,322.127z"/>
	<path style="fill:#543A33;" d="M425.639,271.451c-1.506,0-3.027-0.439-4.362-1.355c-45.654-31.305-89.271-37-89.707-37.054
		c-4.23-0.523-7.242-4.376-6.724-8.607c0.519-4.231,4.359-7.241,8.594-6.731c1.922,0.233,47.641,6.092,96.576,39.648
		c3.519,2.414,4.416,7.223,2.003,10.742C430.521,270.277,428.101,271.451,425.639,271.451z"/>
	<path style="fill:#543A33;" d="M388.584,202.644c-7.419,0-14.602-2.384-20.625-6.916c-3.41-2.565-4.095-7.409-1.529-10.819
		c2.564-3.41,7.406-4.095,10.819-1.53c4.047,3.044,9.049,4.329,14.082,3.617c5.033-0.712,9.482-3.333,12.525-7.379
		c2.566-3.411,7.406-4.096,10.82-1.53c3.41,2.565,4.095,7.409,1.53,10.819c-5.526,7.345-13.591,12.102-22.712,13.391
		C391.852,202.529,390.212,202.644,388.584,202.644z"/>
	<path style="fill:#543A33;" d="M367.305,159.853c-1.616,0-3.247-0.506-4.639-1.552c-3.41-2.565-4.095-7.409-1.529-10.819
		c11.422-15.182,33.064-18.243,48.246-6.822c3.41,2.565,4.095,7.409,1.529,10.819c-2.565,3.41-7.407,4.095-10.819,1.53
		c-8.374-6.3-20.31-4.61-26.609,3.762C371.966,158.789,369.65,159.853,367.305,159.853z"/>
</g>
<circle style="fill:#424342;" cx="388.667" cy="168.198" r="12.957"/>
<path style="fill:#543A33;" d="M298.062,170.124c-3.132,15.69-20.768,27.702-42.062,27.702s-38.931-12.012-42.062-27.702
	c12.64-3.235,26.671-5.017,42.062-5.017C271.391,165.107,285.422,166.889,298.062,170.124z"/>
<g>
</g>
<g>
</g>
<g>
</g>
<g>
</g>
<g>
</g>
<g>
</g>
<g>
</g>
<g>
</g>
<g>
</g>
<g>
</g>
<g>
</g>
<g>
</g>
<g>
</g>
<g>
</g>
<g>
</g>
</svg>
